<svg width="83" height="16" viewBox="0 0 83 16" fill="none" xmlns="http://www.w3.org/2000/svg">
<g id="Group 4">
<g id="&#240;&#159;&#166;&#134; icon &#34;medium&#34;">
<path id="Vector" fill-rule="evenodd" clip-rule="evenodd" d="M2.07938 4.33421C2.1013 4.14496 2.01874 3.95827 1.858 3.83125L0.221382 2.09911V1.84058H5.30513L9.23448 9.40745L12.6889 1.84058H17.5352V2.09911L16.1353 3.27761C16.0148 3.35844 15.9549 3.49124 15.9797 3.62275V12.2822C15.9549 12.413 16.0148 12.5458 16.1353 12.6267L17.5023 13.8052V14.0637H10.6256V13.8052L12.0423 12.5978C12.1811 12.4759 12.1811 12.44 12.1811 12.2533V5.25417L8.24374 14.0355H7.71184L3.12711 5.25417V11.1396C3.08912 11.3866 3.18264 11.6361 3.38064 11.8145L5.22257 13.7763V14.0355H0V13.7763L1.84193 11.8145C2.0392 11.6355 2.12688 11.3847 2.07938 11.1396V4.33421Z" fill="white"/>
</g>
<g id="&#240;&#159;&#166;&#134; icon &#34;facebook&#34;">
<path id="Vector_2" d="M51.4366 7.99929C51.4366 3.74641 47.5093 0.300903 42.669 0.300903C37.8255 0.300903 33.9014 3.74641 33.9014 7.99929C33.9014 11.8408 37.1065 15.026 41.2991 15.6029V10.2251H39.0727V7.99977H41.2991V6.30276C41.2991 4.37383 42.606 3.30857 44.6094 3.30857C45.5689 3.30857 46.5734 3.45868 46.5734 3.45868V5.35297H45.4659C44.3787 5.35297 44.039 5.94719 44.039 6.55584V7.99929H46.4703L46.0796 10.2246H44.039V15.6024C48.2282 15.0255 51.4366 11.8403 51.4366 7.99881V7.99929Z" fill="white"/>
</g>
<g id="&#240;&#159;&#166;&#134; icon &#34;instagram fill icon&#34;">
<path id="Vector_3" fill-rule="evenodd" clip-rule="evenodd" d="M70.6178 0.347094C71.553 0.309456 71.8511 0.300903 74.2324 0.300903C76.6143 0.300903 76.9119 0.309882 77.8466 0.347094C78.7804 0.384305 79.418 0.51475 79.9757 0.705069C80.5607 0.898445 81.0905 1.20143 81.5285 1.59295C81.9745 1.97747 82.3196 2.44278 82.5398 2.95642C82.7565 3.44612 82.9046 4.00597 82.9474 4.82541C82.9903 5.64658 83.0001 5.90832 83.0001 7.99929C83.0001 10.0902 82.9899 10.352 82.9474 11.1732C82.905 11.9926 82.7565 12.5525 82.5398 13.0422C82.3157 13.5481 82.0156 13.9779 81.5285 14.4056C81.0906 14.7972 80.5607 15.1002 79.9757 15.2935C79.418 15.4838 78.7804 15.6138 77.8472 15.6515C76.9119 15.6891 76.6138 15.6977 74.2324 15.6977C71.8511 15.6977 71.553 15.6887 70.6178 15.6515C69.6845 15.6143 69.0469 15.4838 68.4892 15.2935C67.913 15.0968 67.4234 14.8333 66.9363 14.4056C66.4904 14.0211 66.1453 13.5558 65.9251 13.0422C65.7084 12.5525 65.5603 11.9926 65.5174 11.1732C65.4746 10.352 65.4648 10.0907 65.4648 7.99929C65.4648 5.9079 65.4751 5.64658 65.5174 4.82585C65.5598 4.00597 65.7084 3.44612 65.9251 2.95642C66.1454 2.44281 66.4904 1.97753 66.9363 1.59295C67.3743 1.20136 67.9042 0.898354 68.4892 0.705069C69.0469 0.51475 69.6845 0.384732 70.6178 0.347094ZM77.7755 1.7328C76.851 1.69602 76.5734 1.68789 74.2324 1.68789C71.8915 1.68789 71.6139 1.69602 70.6894 1.7328C69.8345 1.76702 69.3703 1.89233 69.0615 1.99797C68.6524 2.1374 68.3601 2.30419 68.0532 2.57363C67.7469 2.84308 67.5564 3.09969 67.3976 3.45895C67.2773 3.73011 67.1346 4.13769 67.0956 4.88829C67.0537 5.70004 67.0445 5.94382 67.0445 7.99929C67.0445 10.0548 67.0537 10.2985 67.0956 11.1103C67.1346 11.8609 67.2773 12.2685 67.3976 12.5397C67.5381 12.874 67.7621 13.1765 68.0532 13.425C68.3361 13.6806 68.6807 13.8773 69.0615 14.0006C69.3703 14.1063 69.8345 14.2316 70.6894 14.2658C71.6139 14.3026 71.891 14.3107 74.2324 14.3107C76.5739 14.3107 76.851 14.3026 77.7755 14.2658C78.6304 14.2316 79.0946 14.1063 79.4034 14.0006C79.8126 13.8612 80.1048 13.6944 80.4117 13.425C80.7028 13.1766 80.9268 12.874 81.0673 12.5397C81.1876 12.2685 81.3303 11.8609 81.3693 11.1103C81.4112 10.2985 81.4205 10.0548 81.4205 7.99929C81.4205 5.94382 81.4112 5.70004 81.3693 4.88829C81.3303 4.13769 81.1876 3.73011 81.0673 3.45895C80.9085 3.09969 80.7186 2.84308 80.4117 2.57363C80.1048 2.30463 79.8126 2.1374 79.4034 1.99797C79.0946 1.89233 78.6304 1.76702 77.7755 1.7328ZM73.113 10.3724C73.4679 10.5015 73.8483 10.568 74.2324 10.568C75.0084 10.568 75.7524 10.2973 76.301 9.81562C76.8497 9.33391 77.158 8.68053 77.158 7.99929C77.158 7.31805 76.8497 6.66467 76.301 6.18295C75.7524 5.70122 75.0084 5.43059 74.2324 5.43059C73.8483 5.43059 73.4679 5.49703 73.113 5.62612C72.758 5.75521 72.4355 5.94442 72.1639 6.18295C71.8922 6.42147 71.6767 6.70463 71.5297 7.01627C71.3827 7.32792 71.307 7.66196 71.307 7.99929C71.307 8.33662 71.3827 8.67066 71.5297 8.9823C71.6767 9.29395 71.8922 9.57711 72.1639 9.81562C72.4355 10.0541 72.758 10.2434 73.113 10.3724ZM71.0459 5.20128C71.891 4.45921 73.0373 4.04231 74.2324 4.04231C75.4277 4.04231 76.574 4.45921 77.4191 5.20128C78.2642 5.94336 78.739 6.94986 78.739 7.99929C78.739 9.04872 78.2642 10.0552 77.4191 10.7973C76.574 11.5394 75.4277 11.9563 74.2324 11.9563C73.0373 11.9563 71.891 11.5394 71.0459 10.7973C70.2007 10.0552 69.7259 9.04872 69.7259 7.99929C69.7259 6.94986 70.2007 5.94336 71.0459 5.20128ZM79.7383 4.63186C79.938 4.45644 80.0502 4.21853 80.0502 3.97046C80.0502 3.72239 79.938 3.48448 79.7383 3.30907C79.5384 3.13366 79.2675 3.03511 78.985 3.03511C78.7025 3.03511 78.4315 3.13366 78.2318 3.30907C78.0319 3.48448 77.9197 3.72239 77.9197 3.97046C77.9197 4.21853 78.0319 4.45644 78.2318 4.63186C78.4315 4.80727 78.7025 4.90582 78.985 4.90582C79.2675 4.90582 79.5384 4.80727 79.7383 4.63186Z" fill="white"/>
</g>
</g>
</svg>
